<svg width="128" height="128" viewBox="0 0 128 128" fill="none" xmlns="http://www.w3.org/2000/svg">
  <rect width="128" height="128" rx="32" fill="#F5F7FA"/>
  <rect x="18" y="18" width="92" height="92" rx="24" fill="url(#paint0_linear)" fill-opacity="0.14"/>
  <path d="M40 39H68C83.464 39 96 51.536 96 67C96 82.464 83.464 95 68 95H40V39Z" fill="#1A73E8"/>
  <path d="M52 51H67C75.8366 51 83 58.1634 83 67C83 75.8366 75.8366 83 67 83H52V51Z" fill="#F5F7FA"/>
  <path d="M68 39H40V95H68C83.464 95 96 82.464 96 67C96 51.536 83.464 39 68 39Z" stroke="#1A1A1A" stroke-opacity="0.08"/>
  <defs>
    <linearGradient id="paint0_linear" x1="18" y1="18" x2="110" y2="110" gradientUnits="userSpaceOnUse">
      <stop stop-color="#1A73E8"/>
      <stop offset="1" stop-color="#00C6FF"/>
    </linearGradient>
  </defs>
</svg>
